<?xml version="1.0" encoding="UTF-8" standalone="no"?>
<!-- Created with Inkscape (http://www.inkscape.org/) -->

<svg
   xmlns:dc="http://purl.org/dc/elements/1.1/"
   xmlns:cc="http://creativecommons.org/ns#"
   xmlns:rdf="http://www.w3.org/1999/02/22-rdf-syntax-ns#"
   xmlns:svg="http://www.w3.org/2000/svg"
   xmlns="http://www.w3.org/2000/svg"
   xmlns:sodipodi="http://sodipodi.sourceforge.net/DTD/sodipodi-0.dtd"
   xmlns:inkscape="http://www.inkscape.org/namespaces/inkscape"
   width="178.03189mm"
   height="173.90176mm"
   viewBox="0 0 178.03189 173.90176"
   version="1.1"
   id="svg8"
   inkscape:version="0.92.4 (5da689c313, 2019-01-14)"
   sodipodi:docname="logo.svg">
  <defs
     id="defs2" />
  <sodipodi:namedview
     id="base"
     pagecolor="#ffffff"
     bordercolor="#666666"
     borderopacity="1.0"
     inkscape:pageopacity="0.0"
     inkscape:pageshadow="2"
     inkscape:zoom="0.35355339"
     inkscape:cx="357.58466"
     inkscape:cy="352.54311"
     inkscape:document-units="mm"
     inkscape:current-layer="layer1"
     showgrid="false"
     inkscape:window-width="1366"
     inkscape:window-height="705"
     inkscape:window-x="-8"
     inkscape:window-y="-8"
     inkscape:window-maximized="1"
     showguides="true"
     inkscape:guide-bbox="true"
     objecttolerance="1"
     guidetolerance="1"
     fit-margin-top="0"
     fit-margin-left="0"
     fit-margin-right="0"
     fit-margin-bottom="0">
    <sodipodi:guide
       position="-301.31589,-125.60745"
       orientation="0,1"
       id="guide39"
       inkscape:locked="false" />
  </sodipodi:namedview>
  <metadata
     id="metadata5">
    <rdf:RDF>
      <cc:Work
         rdf:about="">
        <dc:format>image/svg+xml</dc:format>
        <dc:type
           rdf:resource="http://purl.org/dc/dcmitype/StillImage" />
        <dc:title></dc:title>
      </cc:Work>
    </rdf:RDF>
  </metadata>
  <g
     inkscape:label="Layer 1"
     inkscape:groupmode="layer"
     id="layer1"
     transform="translate(-17.682567,-76.865783)">
    <path
       sodipodi:nodetypes="cccssssscccssscssscccccccccccscscssssccccscscccccccccssssccssccccccccsccsssscccccccscccccsssccccccccscscccscsssccccssscscccccccscsscscccscssscccccssscccsscscccs"
       inkscape:connector-curvature="0"
       id="path41"
       d="m 71.605322,199.83907 c 0,-4.47546 0.72416,-6.62246 3.32544,-9.85931 l 1.42563,-1.77396 -0.092,-8.86975 c -0.10512,-10.13197 -0.15112,-10.44912 -2.52172,-17.38474 -1.97383,-5.77479 -1.91625,-5.3565 -2.1326,-15.4925 -0.16228,-7.60301 -0.27685,-9.57485 -0.69404,-11.94461 -0.63622,-3.61391 -1.46129,-6.51117 -2.65146,-9.31066 -0.51789,-1.21817 -0.90941,-2.24356 -0.87003,-2.27864 0.0394,-0.0353 0.9372,-0.49683 1.99518,-1.02609 l 1.9236,-0.9623 0.8301,1.82179 c 1.90649,4.18405 3.22547,9.44866 3.71565,14.83074 0.14217,1.56108 0.3438,6.35075 0.44807,10.64372 l 0.18956,7.80539 1.55758,4.61228 c 0.85666,2.53675 1.77687,5.64108 2.04491,6.8985 0.71672,3.36229 1.01299,8.26841 0.92607,15.33502 -0.088,7.15478 0.0303,6.67574 -2.39446,9.69761 -1.55419,1.93694 -2.28167,3.3084 -2.28972,4.31662 l -0.005,0.65045 h 2.36526 2.36527 v 2.36528 2.36526 h -4.73053 -4.73054 z m 14.19572,-0.10252 c 0.007,-4.51522 0.66588,-6.44917 3.32392,-9.76086 l 1.42051,-1.76984 -0.0876,-8.86975 c -0.0805,-8.15034 -0.12887,-9.02798 -0.59658,-10.82046 -0.60686,-2.32573 -1.50447,-4.16724 -3.41939,-7.01513 -1.78729,-2.65809 -2.44861,-4.28206 -2.76221,-6.7831 -0.13643,-1.08801 -0.24805,-2.00759 -0.24805,-2.04352 0,-0.036 1.0498,-0.0653 2.33289,-0.0653 h 2.33289 l 0.11903,1.48289 c 0.13609,1.69534 0.74719,3.04167 2.69149,5.9296 1.60101,2.37804 2.56238,4.38962 3.15757,6.6069 0.91199,3.39744 1.06637,5.43506 1.07036,14.12732 0.004,9.53572 0.14199,8.78756 -2.13164,11.58982 -1.51737,1.87018 -2.47678,3.62464 -2.47678,4.52925 v 0.67436 h 4.73054 4.73054 v 2.36525 2.36527 h -7.09581 -7.09581 l 0.004,-2.54266 z m 33.172788,-1.06438 c 0.19876,-5.47371 1.00091,-7.44465 4.6157,-11.34115 2.46001,-2.65173 3.98061,-6.00497 4.91255,-10.83325 0.53174,-2.75489 0.70653,-8.32351 0.35593,-11.33932 -0.20839,-1.79249 -0.21414,-2.49153 -0.0214,-2.61061 0.29611,-0.18302 4.03529,-0.78783 4.15101,-0.67144 0.33587,0.33783 0.63143,5.67239 0.51524,9.29951 -0.27053,8.4453 -2.31369,14.51374 -6.39812,19.00334 -2.41361,2.65302 -3.23151,4.08766 -3.40194,5.96717 l -0.12714,1.40225 h 3.58075 3.58076 v 2.36528 2.36526 h -5.94714 -5.94713 z m 21.27785,0.3548 c 0.13534,-3.85659 0.50561,-5.1092 2.35728,-7.97446 2.49455,-3.86005 2.31978,-3.02716 2.31978,-11.05478 0,-8.12807 0.26615,-6.99278 -2.8484,-12.14986 -2.97559,-4.92701 -4.81957,-9.02685 -5.65736,-12.57841 -0.16111,-0.68295 -0.33176,-1.24175 -0.37921,-1.24175 -0.0475,0 -1.81967,0.89997 -3.93824,1.99992 -8.77673,4.55683 -17.74384,7.61462 -23.62189,8.05505 -0.96472,0.0723 -2.2064,0.17907 -2.75928,0.23731 l -1.00524,0.10589 v -2.36077 -2.36073 l 1.4783,-9e-4 c 3.49802,-0.002 9.40398,-1.42906 14.95631,-3.61329 3.89026,-1.53038 10.84358,-5.00636 15.14177,-7.5694 l 3.31138,-1.97458 0.16756,1.07985 c 0.0922,0.59393 0.33172,2.23742 0.53235,3.6522 0.6621,4.66893 2.197,8.42998 6.12801,15.01588 3.27019,5.47876 3.10621,4.76533 3.10621,13.51509 0,8.67095 -0.0319,8.85051 -2.16418,12.19265 -1.85082,2.90095 -2.44809,4.09089 -2.44809,4.87737 v 0.6695 h 3.5479 3.5479 v 2.36527 2.36527 h -5.94349 -5.94349 z m 16.5034,-41.93439 c 0,-20.85812 -0.004,-20.92898 -1.35322,-24.29943 -1.38732,-3.46546 -4.68017,-7.25905 -8.02094,-9.24067 -3.21082,-1.90455 -7.25995,-3.24034 -11.60031,-3.82685 -3.12567,-0.42236 -11.71107,-0.17014 -14.97763,0.44005 -1.36594,0.25514 -3.76078,0.70651 -5.32185,1.00307 -2.43678,0.46286 -3.64143,0.54155 -8.51499,0.55609 -6.50219,0.0194 -6.63883,-0.0128 -8.627288,-2.03287 -1.5155,-1.53958 -2.76964,-3.45709 -5.93028,-9.06695 -6.93095,-12.30185 -10.21051,-16.32277 -15.48077,-18.98031 -3.02051,-1.52308 -10.1206,-3.56741 -16.26185,-4.68227 l -0.88698,-0.16102 v 2.55191 c 0.2924,3.59338 -0.84595,4.06242 -3.68689,5.92006 -2.85658,-1.05617 -9.57177,-7.38693 -9.57177,-7.38693 0,0 2.61796,5.07957 4.31889,8.85318 0.44671,0.99105 0.68113,3.68697 0.55152,3.8291 -1.29051,1.41519 -2.42749,2.7183 -3.08556,3.55177 -1.28389,1.62613 -3.7777,4.65726 -5.5418,6.73584 -3.08886,3.63953 -3.20745,3.81879 -3.20745,4.8488 0,3.11439 5.24312,8.62698 7.8092,8.21058 1.24806,-0.20254 1.92999,-0.79905 3.4491,-3.01701 1.40729,-2.05469 2.08074,-2.67724 5.41686,-5.00766 l 1.53742,-1.07394 3.78443,-0.11263 c 5.03489,-0.14986 6.47543,-0.58293 8.42548,-2.53297 0.75112,-0.75112 1.43599,-1.64585 1.52194,-1.98828 0.0859,-0.34243 0.2774,-0.62261 0.42547,-0.62261 0.26672,0 3.97854,1.18182 4.13833,1.31762 0.28546,0.2426 -1.8123,3.82475 -2.88064,4.91901 -2.33515,2.39181 -4.71355,3.17379 -10.31211,3.39048 l -3.6486,0.14121 -1.84047,1.29547 c -1.47433,1.03775 -2.08351,1.66564 -3.06217,3.15631 -2.21893,3.37985 -4.05932,4.57059 -7.07711,4.57892 -1.55586,0.004 -1.99205,-0.0997 -3.5479,-0.84626 -4.5413,-2.17895 -8.32598,-7.09163 -8.67554,-11.26126 -0.19991,-2.38448 0.28015,-3.6381 2.21777,-5.79143 0.85516,-0.95034 3.42966,-4.06953 5.72112,-6.9315 1.96332,-2.45214 2.06942,-3.06024 4.1577,-5.31482 0.59559,-0.64304 -9.79336,-21.89247 -9.2723,-21.33793 l 17.20454,13.36022 v 0 -4.53413 -4.53413 l 0.53219,0.12446 c 0.2927,0.0685 2.92702,0.60611 5.85404,1.19477 10.41682,2.095 16.28883,4.02725 20.30448,6.68139 4.11641,2.72074 8.37159,8.15472 13.43132,17.15215 3.85208,6.84995 5.450578,9.47799 6.192968,10.18175 l 0.71135,0.67434 5.99361,-0.11686 c 4.41077,-0.086 6.43082,-0.22028 7.64926,-0.50841 9.89666,-2.34032 20.67409,-2.19031 28.02145,0.39002 10.39479,3.65055 16.46791,10.98147 17.48717,21.10889 0.16302,1.61972 0.25935,9.19499 0.25935,20.39363 v 17.81671 h -2.36527 -2.36527 z"
       style="fill:#ffffff;stroke-width:0.23652695" />
    <g
       aria-label="UNIKORNIS"
       transform="matrix(1.4200394,0,0,1.4200394,2501.57,-713.95653)"
       style="font-style:normal;font-weight:normal;font-size:40px;line-height:1.25;font-family:sans-serif;letter-spacing:0px;word-spacing:0px;fill:#ffffff;fill-opacity:1;stroke:none"
       id="flowRoot43">
      <path
         d="m -1737.4492,673.13384 q 0,6.23047 -5.586,6.23047 -6.1328,0 -6.1328,-6.19141 v -19.00391 h 3.3203 v 17.59766 q 0,2.83203 0.4883,3.92578 0.4883,1.07422 2.1289,1.07422 1.6407,0 2.0508,-1.13281 0.4102,-1.15235 0.4102,-4.0625 v -17.40235 h 3.3203 z"
         style="font-style:normal;font-variant:normal;font-weight:normal;font-stretch:normal;font-family:'Tw Cen MT Condensed';-inkscape-font-specification:'Tw Cen MT Condensed, ';fill:#ffffff"
         id="path314" />
      <path
         d="m -1720.7695,679.01274 h -2.6368 l -6.3476,-17.07031 h -0.078 v 17.07031 h -3.0078 v -24.88281 h 2.6757 l 6.3672,17.08985 h 0.078 v -17.08985 h 2.9493 z"
         style="font-style:normal;font-variant:normal;font-weight:normal;font-stretch:normal;font-family:'Tw Cen MT Condensed';-inkscape-font-specification:'Tw Cen MT Condensed, ';fill:#ffffff"
         id="path316" />
      <path
         d="m -1715.3203,654.12993 h 3.3594 v 24.88281 h -3.3594 z"
         style="font-style:normal;font-variant:normal;font-weight:normal;font-stretch:normal;font-family:'Tw Cen MT Condensed';-inkscape-font-specification:'Tw Cen MT Condensed, ';fill:#ffffff"
         id="path318" />
      <path
         d="m -1693.8945,679.01274 h -3.8477 l -5.3906,-12.63671 h -0.098 v 12.63671 h -3.3984 v -24.88281 h 3.3984 v 12.32422 h 0.098 l 5.7812,-12.32422 h 3.418 l -6.0547,12.08985 z"
         style="font-style:normal;font-variant:normal;font-weight:normal;font-stretch:normal;font-family:'Tw Cen MT Condensed';-inkscape-font-specification:'Tw Cen MT Condensed, ';fill:#ffffff"
         id="path320" />
      <path
         d="m -1691.8438,666.49321 q 0,-8.10547 1.5821,-10.48828 1.6015,-2.38281 5.2539,-2.38281 4.1797,0 5.5469,2.67578 1.3867,2.65625 1.3867,9.58984 0,6.21094 -0.625,8.61329 -0.6055,2.40234 -2.1289,3.53515 -1.5039,1.13281 -4.1016,1.13281 -2.6758,0 -4.1016,-1.03515 -1.4257,-1.05469 -2.1289,-3.39844 -0.6836,-2.34375 -0.6836,-8.24219 z m 10.2344,0.19532 q 0,-7.08985 -0.8398,-8.75 -0.8203,-1.67969 -2.4805,-1.67969 -1.9531,0 -2.6758,2.01172 -0.7226,1.99218 -0.7226,6.73828 v 1.36719 q 0,5.29296 0.5859,7.73437 0.5859,2.42188 2.8125,2.42188 1.3672,0 2.3438,-1.36719 0.9765,-1.36719 0.9765,-7.5586 z"
         style="font-style:normal;font-variant:normal;font-weight:normal;font-stretch:normal;font-family:'Tw Cen MT Condensed';-inkscape-font-specification:'Tw Cen MT Condensed, ';fill:#ffffff"
         id="path322" />
      <path
         d="m -1662.3516,679.01274 h -3.4765 l -3.9063,-11.67968 h -0.2929 v 11.67968 h -3.3594 v -24.88281 h 4.6484 q 5.6836,0 5.6836,6.36719 0,2.89062 -0.8398,4.35547 -0.8399,1.46484 -2.7344,2.20703 z m -7.6757,-13.96484 q 1.9531,-0.0391 2.8125,-0.91797 0.8789,-0.89844 0.8789,-3.24219 0,-2.24609 -0.8008,-3.20312 -0.7813,-0.95703 -2.6953,-0.95703 h -0.1953 z"
         style="font-style:normal;font-variant:normal;font-weight:normal;font-stretch:normal;font-family:'Tw Cen MT Condensed';-inkscape-font-specification:'Tw Cen MT Condensed, ';fill:#ffffff"
         id="path324" />
      <path
         d="m -1646.9414,679.01274 h -2.6367 l -6.3477,-17.07031 h -0.078 v 17.07031 h -3.0078 v -24.88281 h 2.6758 l 6.3671,17.08985 h 0.078 v -17.08985 h 2.9492 z"
         style="font-style:normal;font-variant:normal;font-weight:normal;font-stretch:normal;font-family:'Tw Cen MT Condensed';-inkscape-font-specification:'Tw Cen MT Condensed, ';fill:#ffffff"
         id="path326" />
      <path
         d="m -1641.4922,654.12993 h 3.3594 v 24.88281 h -3.3594 z"
         style="font-style:normal;font-variant:normal;font-weight:normal;font-stretch:normal;font-family:'Tw Cen MT Condensed';-inkscape-font-specification:'Tw Cen MT Condensed, ';fill:#ffffff"
         id="path328" />
      <path
         d="m -1624.7148,657.33306 q -1.6407,-0.87891 -2.9493,-0.87891 -1.3086,0 -2.2461,0.9375 -0.9179,0.9375 -0.9179,2.26563 0,0.9375 0.5468,2.01171 0.5469,1.05469 2.4805,3.39844 1.9531,2.32422 2.9688,4.04297 1.0351,1.71875 1.0351,3.94531 0,2.77344 -1.6797,4.51172 -1.6601,1.71875 -4.3554,1.71875 -1.4844,0 -3.6328,-0.8789 v -2.98829 q 0.058,0.0195 0.1171,0.0586 0.293,0.21484 1.2305,0.66406 0.9375,0.42969 1.8359,0.42969 1.4649,0 2.4024,-0.97656 0.957,-0.97657 0.957,-2.5 0,-1.05469 -0.4883,-1.95313 -0.4687,-0.89844 -1.7382,-2.44141 l -2.2461,-2.7539 q -1.3086,-1.60156 -1.9336,-2.92969 -0.625,-1.32812 -0.625,-3.16406 0,-2.71485 1.582,-4.41406 1.582,-1.69922 4.1016,-1.69922 1.7578,0 3.5547,0.8789 z"
         style="font-style:normal;font-variant:normal;font-weight:normal;font-stretch:normal;font-family:'Tw Cen MT Condensed';-inkscape-font-specification:'Tw Cen MT Condensed, ';fill:#ffffff"
         id="path330" />
    </g>
  </g>
</svg>
